<svg width="296" height="68" viewBox="0 0 296 68" fill="none" xmlns="http://www.w3.org/2000/svg">
<path d="M50.2458 35.7597H32.9132V54H27.4667V12.697H53.0541V17.179H32.9132V31.306H50.2458V35.7597ZM255.825 33.4336L266.604 12.697H272.788L258.548 38.5965V54H253.101V38.5965L238.861 12.697H245.102L255.825 33.4336Z" fill="#FC0000"/>
<path d="M91.3502 34.6818C91.3502 38.7289 90.6694 42.2653 89.3077 45.2912C87.9461 48.2981 86.0171 50.5959 83.5208 52.1845C81.0244 53.7731 78.1121 54.5673 74.7836 54.5673C71.5308 54.5673 68.6468 53.7731 66.1315 52.1845C63.6163 50.577 61.6589 48.2981 60.2595 45.3479C58.8789 42.3788 58.1697 38.9463 58.1319 35.0505V32.072C58.1319 28.1005 58.8222 24.5924 60.2027 21.5476C61.5833 18.5029 63.5312 16.1767 66.0464 14.5692C68.5806 12.9428 71.4741 12.1296 74.7269 12.1296C78.0364 12.1296 80.9488 12.9334 83.464 14.5409C85.9982 16.1294 87.9461 18.4461 89.3077 21.4909C90.6694 24.5168 91.3502 28.0438 91.3502 32.072V34.6818ZM85.932 32.0152C85.932 27.1171 84.9486 23.3631 82.9818 20.7533C81.015 18.1246 78.2633 16.8103 74.7269 16.8103C71.285 16.8103 68.5711 18.1246 66.5854 20.7533C64.6186 23.3631 63.6068 26.9942 63.5501 31.6464V34.6818C63.5501 39.4286 64.543 43.1636 66.5287 45.8869C68.5333 48.5913 71.285 49.9435 74.7836 49.9435C78.3012 49.9435 81.0244 48.6669 82.9534 46.1138C84.8824 43.5419 85.8753 39.8636 85.932 35.0789V32.0152Z" fill="#FFFF00"/>
<path d="M157.163 54V12.697H168.822C172.415 12.697 175.592 13.4913 178.353 15.0799C181.114 16.6684 183.242 18.9284 184.736 21.8597C186.249 24.791 187.015 28.1572 187.034 31.9585V34.5967C187.034 38.4925 186.277 41.906 184.764 44.8373C183.27 47.7686 181.124 50.0191 178.325 51.5888C175.545 53.1584 172.301 53.9622 168.595 54H157.163ZM162.609 17.179V49.5463H168.339C172.538 49.5463 175.8 48.2414 178.126 45.6316C180.471 43.0218 181.644 39.3057 181.644 34.4832V32.072C181.644 27.3819 180.537 23.7414 178.325 21.1505C176.131 18.5407 173.011 17.2169 168.964 17.179H162.609Z" fill="#189504"/>
<path d="M201.132 54H195.686V12.697H201.132V54Z" fill="#FFA500"/>
<path d="M233.897 35.7597H216.564V54H211.118V12.697H236.705V17.179H216.564V31.306H233.897V35.7597Z" fill="#FFC0CB"/>
<path fill-rule="evenodd" clip-rule="evenodd" d="M124 5C107.984 5 95 17.9838 95 34C95 50.0162 107.984 63 124 63C140.016 63 153 50.0162 153 34C152.982 17.9913 140.009 5.01812 124 5ZM124 61.0667C109.051 61.0667 96.9333 48.9485 96.9333 34C96.9333 19.0515 109.051 6.93333 124 6.93333C138.949 6.93333 151.067 19.0515 151.067 34C151.05 48.9414 138.941 61.0496 124 61.0667ZM135.451 22.5054L136.072 24.5479C136.594 26.2705 136.704 28.0919 136.392 29.8646C136.108 31.3557 135.162 32.6371 133.82 33.3475L134.519 48.9514C134.599 49.7976 134.318 50.638 133.746 51.2666C133.678 51.341 133.607 51.4123 133.532 51.4804C132.156 52.7386 130.02 52.6429 128.762 51.2666C128.177 50.6197 127.895 49.7539 127.988 48.8867L128.684 33.3494C127.34 32.6394 126.393 31.3571 126.108 29.8646C125.796 28.0919 125.906 26.2705 126.428 24.5479L127.049 22.5054C127.492 21.2001 128.517 20.1751 129.823 19.7316C132.143 18.9433 134.663 20.1851 135.451 22.5054ZM132.482 31.8376C133.514 31.4803 134.278 30.6005 134.487 29.5282C134.745 28.0564 134.654 26.5446 134.222 25.1144L133.601 23.0709C133.347 22.3845 132.806 21.8433 132.12 21.5894C130.821 21.1093 129.379 21.7725 128.899 23.0709L128.278 25.1144C127.845 26.5445 127.754 28.0564 128.013 29.5282C128.222 30.6005 128.986 31.4803 130.018 31.8376C130.41 31.9849 130.663 32.3677 130.644 32.7859L129.915 49.0404C129.866 49.3801 129.97 49.7243 130.199 49.98C130.781 50.5562 131.719 50.5562 132.301 49.98C132.519 49.7434 132.625 49.4243 132.591 49.1042L131.856 32.7859C131.837 32.3677 132.09 31.9849 132.482 31.8376ZM120.133 20.4667C120.133 19.9328 120.566 19.5 121.1 19.5C121.634 19.5 122.067 19.9328 122.067 20.4668V29.1668C122.067 29.4232 121.965 29.669 121.783 29.8502L119.187 32.4477L120.012 48.938C120.017 49.0439 120.017 49.1498 120.012 49.2557C119.924 51.057 118.392 52.4461 116.591 52.3583C114.79 52.2706 113.401 50.7392 113.488 48.9379L114.313 32.4475L111.717 29.8501C111.535 29.6689 111.433 29.4231 111.433 29.1667V20.4667C111.433 19.9328 111.866 19.5 112.4 19.5C112.934 19.5 113.367 19.9328 113.367 20.4667V28.7665L115.984 31.3832C116.178 31.5763 116.28 31.8422 116.267 32.115L115.415 49.0317C115.395 49.3965 115.527 49.7533 115.78 50.0167L115.789 50.0252C116.323 50.5544 117.185 50.5505 117.714 50.0167C117.967 49.7533 118.099 49.3965 118.079 49.0317L117.233 32.115C117.22 31.842 117.323 31.5761 117.517 31.3832L120.133 28.7665V20.4667ZM115.3 19.5C114.766 19.5 114.333 19.9328 114.333 20.4667V28.2C114.333 28.7338 114.766 29.1667 115.3 29.1667C115.834 29.1667 116.267 28.7338 116.267 28.2V20.4667C116.267 19.9328 115.834 19.5 115.3 19.5ZM117.233 20.4667C117.233 19.9328 117.666 19.5 118.2 19.5C118.734 19.5 119.167 19.9328 119.167 20.4667V28.2C119.167 28.7338 118.734 29.1667 118.2 29.1667C117.666 29.1667 117.233 28.7338 117.233 28.2V20.4667ZM126.082 51.2776C126.613 51.2258 127.086 51.6145 127.138 52.1458C127.19 52.6772 126.801 53.15 126.27 53.2017C124.76 53.378 123.236 53.378 121.726 53.2017C121.196 53.1395 120.816 52.6592 120.879 52.1287C120.941 51.5983 121.421 51.2188 121.952 51.281C123.313 51.439 124.687 51.439 126.048 51.281L126.045 51.2819C126.057 51.2803 126.069 51.2788 126.082 51.2776ZM138.79 21.5435C138.447 21.1345 137.837 21.081 137.428 21.4242L137.424 21.4275C137.016 21.7717 136.964 22.3814 137.308 22.7896C143.136 29.7085 142.691 39.9393 136.282 46.325C135.904 46.7019 135.903 47.3142 136.28 47.6924C136.657 48.0706 137.269 48.0717 137.647 47.6948C144.769 40.6003 145.266 29.232 138.79 21.5435ZM117.521 17.7773L117.522 17.7774H117.518L117.52 17.7773L117.521 17.7773ZM117.859 17.7146C117.751 17.7555 117.636 17.7767 117.521 17.7773C117.118 17.7769 116.758 17.5276 116.617 17.151C116.429 16.6514 116.681 16.0938 117.181 15.9059C120.82 14.545 124.782 14.3016 128.56 15.207C129.079 15.3325 129.398 15.8548 129.272 16.3738C129.147 16.8928 128.624 17.2117 128.105 17.0862C124.703 16.2704 121.136 16.4892 117.859 17.7146ZM106.6 34C106.589 38.6047 108.415 43.0235 111.674 46.2767C112.052 46.6549 112.052 47.268 111.674 47.646C111.295 48.0239 110.682 48.0237 110.304 47.6455C103.598 40.9154 102.775 30.3097 108.364 22.6262C108.37 22.6185 108.375 22.6109 108.381 22.6032C108.702 22.1765 109.308 22.0905 109.734 22.4114C110.161 22.7322 110.247 23.3382 109.926 23.7649C107.756 26.7353 106.59 30.3211 106.6 34Z" fill="black"/>
</svg>
